<?xml version="1.0" encoding="utf-8"?>
<!-- Generator: Adobe Illustrator 23.0.6, SVG Export Plug-In . SVG Version: 6.00 Build 0)  -->
<svg version="1.1" id="Layer_1" xmlns="http://www.w3.org/2000/svg" xmlns:xlink="http://www.w3.org/1999/xlink" x="0px" y="0px"
	 viewBox="0 0 24 24" style="enable-background:new 0 0 24 24;" xml:space="preserve">
<style type="text/css">
	.st0{fill:#666666;}
	.st1{fill:#F44336;}
	.st2{fill:#FFFFFF;}
</style>
<path class="st0" d="M12,0c-1.1,0-2,0.9-2,2c0,0,0,0.1,0,0.1C7.7,2.4,6,3.4,6,6c0,9.9-5,8-5,14c0,0,4,1,11,1s11-1,11-1
	c0-5.9-5-4-5-14c0-2.6-1.7-3.6-4-3.9c0,0,0-0.1,0-0.1C14,0.9,13.1,0,12,0z M9.2,21.9C9.6,23.1,10.7,24,12,24s2.4-0.9,2.8-2.1
	C14,22,13,22,12,22C11,22,10,22,9.2,21.9z"/>
<path class="st1" d="M24,4.6c0,2.5-2,4.6-4.6,4.6s-4.6-2-4.6-4.6s2-4.6,4.6-4.6S24,2,24,4.6"/>
<path class="st2" d="M18.7,1.4h1.4v4.1h-1.4V1.4z M18.7,6.4h1.4v1.4h-1.4V6.4z"/>
</svg>
