<?xml version="1.0" encoding="utf-8"?>
<svg xmlns="http://www.w3.org/2000/svg" viewBox="0 0 64 64" width="50" height="50">
  <path fill="#85cbf8" d="M59,21H17c-1.105,0-2-0.895-2-2v-2c0-1.105,0.895-2,2-2h42c1.105,0,2,0.895,2,2v2 C61,20.105,60.105,21,59,21z" />
  <path fill="#ed7899" d="M9,21H7c-1.105,0-2-0.895-2-2v-2c0-1.105,0.895-2,2-2h2c1.105,0,2,0.895,2,2v2 C11,20.105,10.105,21,9,21z" />
  <path fill="#85cbf8" d="M47,33H17c-1.105,0-2-0.895-2-2v-2c0-1.105,0.895-2,2-2h30c1.105,0,2,0.895,2,2v2 C49,32.105,48.105,33,47,33z" />
  <path fill="#ed7899" d="M9,33H7c-1.105,0-2-0.895-2-2v-2c0-1.105,0.895-2,2-2h2c1.105,0,2,0.895,2,2v2 C11,32.105,10.105,33,9,33z" />
  <path fill="#85cbf8" d="M35,45H17c-1.105,0-2-0.895-2-2v-2c0-1.105,0.895-2,2-2h18c1.105,0,2,0.895,2,2v2 C37,44.105,36.105,45,35,45z" />
  <path fill="#ed7899" d="M9,45H7c-1.105,0-2-0.895-2-2v-2c0-1.105,0.895-2,2-2h2c1.105,0,2,0.895,2,2v2 C11,44.105,10.105,45,9,45z" />
  <path fill="#85cbf8" d="M23,57h-6c-1.105,0-2-0.895-2-2v-2c0-1.105,0.895-2,2-2h6c1.105,0,2,0.895,2,2v2 C25,56.105,24.105,57,23,57z" />
  <path fill="#ed7899" d="M9,57H7c-1.105,0-2-0.895-2-2v-2c0-1.105,0.895-2,2-2h2c1.105,0,2,0.895,2,2v2 C11,56.105,10.105,57,9,57z" />
  <path fill="#8d6c9f" d="M10 10.057c.553 0 1-.448 1-1v-2c0-.552-.447-1-1-1s-1 .448-1 1v2C9 9.609 9.447 10.057 10 10.057zM5 10.057c.553 0 1-.448 1-1v-2c0-.552-.447-1-1-1s-1 .448-1 1v2C4 9.609 4.447 10.057 5 10.057zM15 10.057c.553 0 1-.448 1-1v-2c0-.552-.447-1-1-1s-1 .448-1 1v2C14 9.609 14.447 10.057 15 10.057zM20 10.057c.553 0 1-.448 1-1v-2c0-.552-.447-1-1-1s-1 .448-1 1v2C19 9.609 19.447 10.057 20 10.057zM25 10.057c.553 0 1-.448 1-1v-2c0-.552-.447-1-1-1s-1 .448-1 1v2C24 9.609 24.447 10.057 25 10.057zM30 10.057c.553 0 1-.448 1-1v-2c0-.552-.447-1-1-1s-1 .448-1 1v2C29 9.609 29.447 10.057 30 10.057zM35 10.057c.553 0 1-.448 1-1v-2c0-.552-.447-1-1-1s-1 .448-1 1v2C34 9.609 34.447 10.057 35 10.057zM40 10.057c.553 0 1-.448 1-1v-2c0-.552-.447-1-1-1s-1 .448-1 1v2C39 9.609 39.447 10.057 40 10.057zM45 10.057c.553 0 1-.448 1-1v-2c0-.552-.447-1-1-1s-1 .448-1 1v2C44 9.609 44.447 10.057 45 10.057zM50 10.057c.553 0 1-.448 1-1v-2c0-.552-.447-1-1-1s-1 .448-1 1v2C49 9.609 49.447 10.057 50 10.057zM55 10.057c.553 0 1-.448 1-1v-2c0-.552-.447-1-1-1s-1 .448-1 1v2C54 9.609 54.447 10.057 55 10.057zM60 10.057c.553 0 1-.448 1-1v-2c0-.552-.447-1-1-1s-1 .448-1 1v2C59 9.609 59.447 10.057 60 10.057zM59 14H17c-1.654 0-3 1.346-3 3v2c0 1.654 1.346 3 3 3h42c1.654 0 3-1.346 3-3v-2C62 15.346 60.654 14 59 14zM60 19c0 .551-.448 1-1 1H17c-.552 0-1-.449-1-1v-2c0-.551.448-1 1-1h42c.552 0 1 .449 1 1V19zM9 14H7c-1.654 0-3 1.346-3 3v2c0 1.654 1.346 3 3 3h2c1.654 0 3-1.346 3-3v-2C12 15.346 10.654 14 9 14zM10 19c0 .551-.448 1-1 1H7c-.552 0-1-.449-1-1v-2c0-.551.448-1 1-1h2c.552 0 1 .449 1 1V19zM47 26H17c-1.654 0-3 1.346-3 3v2c0 1.654 1.346 3 3 3h30c1.654 0 3-1.346 3-3v-2C50 27.346 48.654 26 47 26zM48 31c0 .551-.448 1-1 1H17c-.552 0-1-.449-1-1v-2c0-.551.448-1 1-1h30c.552 0 1 .449 1 1V31zM9 26H7c-1.654 0-3 1.346-3 3v2c0 1.654 1.346 3 3 3h2c1.654 0 3-1.346 3-3v-2C12 27.346 10.654 26 9 26zM10 31c0 .551-.448 1-1 1H7c-.552 0-1-.449-1-1v-2c0-.551.448-1 1-1h2c.552 0 1 .449 1 1V31zM35 38H17c-1.654 0-3 1.346-3 3v2c0 1.654 1.346 3 3 3h18c1.654 0 3-1.346 3-3v-2C38 39.346 36.654 38 35 38zM36 43c0 .551-.448 1-1 1H17c-.552 0-1-.449-1-1v-2c0-.551.448-1 1-1h18c.552 0 1 .449 1 1V43zM9 38H7c-1.654 0-3 1.346-3 3v2c0 1.654 1.346 3 3 3h2c1.654 0 3-1.346 3-3v-2C12 39.346 10.654 38 9 38zM10 43c0 .551-.448 1-1 1H7c-.552 0-1-.449-1-1v-2c0-.551.448-1 1-1h2c.552 0 1 .449 1 1V43zM23 50h-6c-1.654 0-3 1.346-3 3v2c0 1.654 1.346 3 3 3h6c1.654 0 3-1.346 3-3v-2C26 51.346 24.654 50 23 50zM24 55c0 .551-.448 1-1 1h-6c-.552 0-1-.449-1-1v-2c0-.551.448-1 1-1h6c.552 0 1 .449 1 1V55zM9 50H7c-1.654 0-3 1.346-3 3v2c0 1.654 1.346 3 3 3h2c1.654 0 3-1.346 3-3v-2C12 51.346 10.654 50 9 50zM10 55c0 .551-.448 1-1 1H7c-.552 0-1-.449-1-1v-2c0-.551.448-1 1-1h2c.552 0 1 .449 1 1V55z" />
</svg>