<?xml version="1.0" encoding="utf-8"?>
<svg xmlns="http://www.w3.org/2000/svg" viewBox="0 0 64 64" width="50" height="50">
  <path fill="#faefde" d="M55,13h-3v31c0,1.105-0.895,2-2,2H7v3c0,1.105,0.895,2,2,2h46c1.105,0,2-0.895,2-2V15 C57,13.895,56.105,13,55,13z" />
  <path fill="#efd8be" d="M12,54c0,1.105,0.895,2,2,2h46c1.105,0,2-0.895,2-2V20c0-1.105-0.895-2-2-2h-3l-0.09,0.066V49 c0,1.105-0.895,2-2,2H12V54z" />
  <path fill="#c2cde7" d="M50,8H10l-8,8v28c0,1.105,0.895,2,2,2h46c1.105,0,2-0.895,2-2V10C52,8.895,51.105,8,50,8z" />
  <path fill="#ced9ed" d="M52 14L20 46 34 46 52 28zM50 8h-3L9 46h6.563L51.96 9.608C51.778 8.691 50.97 8 50 8zM38 8L2 44v0c0 1.105.895 2 2 2L42 8H38z" />
  <path fill="#ffefb8" d="M10,8v6c0,1.105-0.895,2-2,2H2L10,8z" />
  <path fill="#acb7d0" d="M2,45v-0.258C2,42.123,4.123,40,6.742,40h40.516C49.877,40,52,42.123,52,44.742V45 c0,0.552-0.448,1-1,1H3C2.448,46,2,45.552,2,45z" />
  <path fill="#e4eaf4" d="M39.5 28L40.74 30.26 43 31.5 40.74 32.74 39.5 35 38.26 32.74 36 31.5 38.26 30.26zM30.42 12L31.27 13.56 32.84 14.42 31.27 15.27 30.42 16.84 29.56 15.27 28 14.42 29.56 13.56zM10.65 32L11.23 33.06 12.3 33.65 11.23 34.23 10.65 35.3 10.06 34.23 9 33.65 10.06 33.06z" />
  <path fill="none" stroke="#8d6c9f" stroke-linecap="round" stroke-linejoin="round" stroke-width="2" d="M50,46 H4c-1.105,0-2-0.895-2-2V16l8-8h40c1.105,0,2,0.895,2,2v34C52,45.105,51.105,46,50,46z" />
  <path fill="none" stroke="#8d6c9f" stroke-linecap="round" stroke-linejoin="round" stroke-width="2" d="M52,13 h3c1.105,0,2,0.895,2,2v34c0,1.105-0.895,2-2,2H9c-1.105,0-2-0.895-2-2v-3" />
  <path fill="none" stroke="#8d6c9f" stroke-linecap="round" stroke-linejoin="round" stroke-width="2" d="M57 18h3c1.105 0 2 .895 2 2v34c0 1.105-.895 2-2 2H14c-1.105 0-2-.895-2-2v-3M10 8v6c0 1.105-.895 2-2 2H2M7 39L7 41M12 39L12 41M17 39L17 41M22 39L22 41M27 39L27 41M32 39L32 41M37 39L37 41M42 39L42 41M47 39L47 41M14 21L24 21M14 26L32 26M14 31L36 31M36 26L40 26" />
</svg>